<svg viewBox="0 0 512 512">
  <path d="m60.132488,440.89256l0,0c0,-62.52961 50.815679,-113.21986 113.499996,-113.21986c62.684317,0 113.499996,50.69025 113.499996,113.21986l-56.749998,0c0,-31.2648 -25.407855,-56.60993 -56.749998,-56.60993c-31.342154,0 -56.749998,25.34512 -56.749998,56.60993l-56.749998,0z" fill="#2e7d32" id="svg_4" stroke="#000000" stroke-width="0" transform="rotate(-180 173.632 384.283)"/>
  <rect fill="#0277bd" height="240" id="svg_9" rx="14" ry="14" stroke="#000000" stroke-dasharray="null" stroke-linecap="null" stroke-linejoin="null" stroke-width="0" width="60" x="60.25" y="63.75"/>
  <rect fill="#0277bd" height="110" id="svg_10" rx="10" ry="10" stroke="#000000" stroke-dasharray="null" stroke-linecap="null" stroke-linejoin="null" stroke-width="0" width="60" x="228.125" y="63.5"/>
  <rect fill="#0277bd" height="240" id="svg_11" rx="14" ry="14" stroke="#000000" stroke-dasharray="null" stroke-linecap="null" stroke-linejoin="null" stroke-width="0" width="60" x="399.125" y="63.5"/>
  <rect fill="#0277bd" height="110" id="svg_12" rx="14" ry="14" stroke="#000000" stroke-dasharray="null" stroke-linecap="null" stroke-linejoin="null" stroke-width="0" width="60" x="229.125" y="194"/>
  <path d="m230.000011,441.109937l0,0c0,-62.52961 50.815679,-113.21986 113.499996,-113.21986c62.684317,0 113.499996,50.69025 113.499996,113.21986l-56.749998,0c0,-31.2648 -25.407855,-56.60993 -56.749998,-56.60993c-31.342154,0 -56.749998,25.34512 -56.749998,56.60993l-56.749998,0z" fill="#2e7d32" id="svg_1" stroke="#000000" stroke-width="0" transform="rotate(-180 343.5 384.5)"/>
</svg>